# xmcd
# 
# Track frame offsets:
#     150
#     20207
#     37554
#     60733
# 
# Disc length: 951
# 
# Revision: 0
# Processed by: cddbd v1.5.2PL0 Copyright (c) Steve Scherf et al.
# Submitted via: fre:ac v1.0.31
# 
DISCID=2903b504
DTITLE=Lifvsleda - Manifest MMXIX
DYEAR=2019
DGENRE=Black Metal
TTITLE0=I
TTITLE1=II
TTITLE2=III
TTITLE3=IV
EXTD=
EXTT0=
EXTT1=
EXTT2=
EXTT3=
PLAYORDER=
